<?xml version="1.0" encoding="UTF-8" standalone="no"?>
<!DOCTYPE svg PUBLIC "-//W3C//DTD SVG 1.1//EN" "http://www.w3.org/Graphics/SVG/1.1/DTD/svg11.dtd">
<svg width="100%" height="100%" viewBox="0 0 699 762" version="1.1" xmlns="http://www.w3.org/2000/svg" xmlns:xlink="http://www.w3.org/1999/xlink" xml:space="preserve" xmlns:serif="http://www.serif.com/" style="fill-rule:evenodd;clip-rule:evenodd;stroke-linejoin:round;stroke-miterlimit:2;">
    <g>
        <path d="M90.5,-0.5L92.5,-0.5C101.469,8.3 110.635,16.967 120,25.5C120.483,26.448 120.649,27.448 120.5,28.5C110.817,28.623 101.15,29.123 91.5,30C82.619,40.546 74.119,51.38 66,62.5C64.316,64.351 62.483,66.018 60.5,67.5C58.861,54.984 57.528,42.484 56.5,30C67.432,19.227 78.765,9.06 90.5,-0.5Z" style="fill:rgb(254,254,254);"/>
    </g>
    <g>
        <path d="M230.5,-0.5L232.5,-0.5C238.637,5.467 244.97,11.301 251.5,17C256.088,21.081 260.088,25.581 263.5,30.5C258.472,46.256 252.472,61.59 245.5,76.5C239.707,61.29 234.207,45.957 229,30.5C227.933,29.81 226.766,29.31 225.5,29C216.833,28.667 208.167,28.333 199.5,28C209.729,18.266 220.063,8.766 230.5,-0.5Z" style="fill:rgb(254,254,254);"/>
    </g>
    <g>
        <path d="M165.5,41.5C171.509,41.334 177.509,41.501 183.5,42C199.057,58.387 214.057,75.22 228.5,92.5C196.631,96.413 164.631,99.58 132.5,102C116.515,103.666 100.515,104.666 84.5,105C107.465,85.037 130.131,64.704 152.5,44C156.906,42.959 161.239,42.126 165.5,41.5Z" style="fill:rgb(254,254,254);"/>
    </g>
    <g>
        <path d="M110.5,47.5C114.846,47.334 119.179,47.501 123.5,48C102.128,67.041 80.462,85.707 58.5,104C49.5,104.667 40.5,104.667 31.5,104C52.833,86 74.167,68 95.5,50C100.625,49.075 105.625,48.241 110.5,47.5Z" style="fill:rgb(254,254,254);"/>
    </g>
    <g>
        <path d="M282.5,63.5C307.744,73.871 332.578,85.204 357,97.5C356.989,101.225 356.323,104.892 355,108.5C346.667,132.833 338.333,157.167 330,181.5C313.877,142.258 298.044,102.925 282.5,63.5Z" style="fill:rgb(254,254,254);"/>
    </g>
    <g>
        <path d="M265.5,77.5C283.456,118.018 300.456,159.018 316.5,200.5C309.509,220.153 301.675,239.486 293,258.5C277.269,211.141 261.436,163.807 245.5,116.5C252.448,103.603 259.115,90.603 265.5,77.5Z" style="fill:rgb(254,254,254);"/>
    </g>
    <g>
        <path d="M-0.5,169.5L-0.5,168.5C19.946,149.773 40.613,131.273 61.5,113C65.048,109.444 69.048,108.778 73.5,111C92.93,145.189 111.596,179.855 129.5,215C87.812,215.947 46.145,215.447 4.5,213.5C2.909,203.221 2.075,192.888 2,182.5C8.627,190.796 15.627,198.796 23,206.5C31.106,195.959 37.939,184.626 43.5,172.5C43.392,171.558 43.059,170.725 42.5,170C28.171,169.5 13.837,169.333 -0.5,169.5Z" style="fill:rgb(254,254,254);"/>
    </g>
    <g>
        <path d="M384.5,112.5C383.833,111.167 383.833,111.167 384.5,112.5Z" style="fill:rgb(241,242,241);"/>
    </g>
    <g>
        <path d="M384.5,112.5C407.926,121.711 431.259,131.211 454.5,141C469.863,161.519 484.196,182.685 497.5,204.5C459.229,174.56 421.562,143.894 384.5,112.5Z" style="fill:rgb(254,254,254);"/>
    </g>
    <g>
        <path d="M213.5,115.5C214.386,114.224 215.386,114.224 216.5,115.5C216.376,116.107 216.043,116.44 215.5,116.5C215.158,115.662 214.492,115.328 213.5,115.5Z" style="fill:rgb(237,237,237);"/>
    </g>
    <g>
        <path d="M213.5,115.5C214.492,115.328 215.158,115.662 215.5,116.5C192.206,144.736 168.206,172.403 143.5,199.5C129.99,175.149 116.99,150.483 104.5,125.5C140.755,121.575 177.089,118.241 213.5,115.5Z" style="fill:rgb(254,254,254);"/>
    </g>
    <g>
        <path d="M228.5,131.5C229.634,133.966 229.801,136.633 229,139.5C223.28,182.539 217.28,225.539 211,268.5C191.994,252.324 173.16,235.991 154.5,219.5C178.814,189.854 203.48,160.521 228.5,131.5Z" style="fill:rgb(254,254,254);"/>
    </g>
    <g>
        <path d="M387.5,138.5C386.833,137.167 386.833,137.167 387.5,138.5Z" style="fill:rgb(236,237,236);"/>
    </g>
    <g>
        <path d="M387.5,138.5C434.924,178.424 483.09,217.424 532,255.5C538.64,264.974 545.473,274.307 552.5,283.5C545.388,300.391 537.221,316.724 528,332.5C506.128,308.296 484.628,283.796 463.5,259C455.664,253.245 447.331,248.245 438.5,244C437.333,242.833 436.167,241.667 435,240.5C418.335,206.839 402.501,172.839 387.5,138.5Z" style="fill:rgb(254,254,254);"/>
    </g>
    <g>
        <path d="M364.5,140.5C365.376,140.369 366.043,140.702 366.5,141.5C382.16,173.128 396.827,204.794 410.5,236.5C388.13,225.565 365.964,214.232 344,202.5C350.112,181.662 356.946,160.996 364.5,140.5Z" style="fill:rgb(254,254,254);"/>
    </g>
    <g>
        <path d="M487.5,152.5C487.56,151.957 487.893,151.624 488.5,151.5C530.117,170.701 571.784,189.701 613.5,208.5C596.167,226.5 578.5,244.167 560.5,261.5C535.895,225.273 511.562,188.94 487.5,152.5Z" style="fill:rgb(254,254,254);"/>
    </g>
    <g>
        <path d="M245.5,182.5C257.336,214.872 268.669,247.539 279.5,280.5C266.67,312.162 253.836,343.828 241,375.5C236.469,346.755 232.636,317.922 229.5,289C233.912,253.362 239.245,217.862 245.5,182.5Z" style="fill:rgb(254,254,254);"/>
    </g>
    <g>
        <path d="M497.5,204.5C498.833,205.167 498.833,205.167 497.5,204.5Z" style="fill:rgb(247,248,247);"/>
    </g>
    <g>
        <path d="M330.5,220.5C333.237,221.031 335.904,221.864 338.5,223C368.5,238.333 398.5,253.667 428.5,269C389.162,269.833 349.829,269.667 310.5,268.5C317.182,252.474 323.848,236.474 330.5,220.5Z" style="fill:rgb(254,254,254);"/>
    </g>
    <g>
        <path d="M624.5,221.5C625.675,221.281 626.675,221.614 627.5,222.5C637.417,237.999 647.084,253.666 656.5,269.5C642.466,299.901 627.633,329.901 612,359.5C597.33,334.328 583.83,308.495 571.5,282C572.924,278.908 574.757,276.074 577,273.5C593.04,256.296 608.873,238.963 624.5,221.5Z" style="fill:rgb(254,254,254);"/>
    </g>
    <g>
        <path d="M26.5,230.5C62.964,231.685 99.63,233.185 136.5,235C157.239,251.031 177.573,267.531 197.5,284.5C185.226,299.611 172.392,314.278 159,328.5C141.441,303.886 123.275,279.719 104.5,256C89.11,253.706 73.777,251.039 58.5,248C47.619,242.396 36.952,236.563 26.5,230.5Z" style="fill:rgb(254,254,254);"/>
    </g>
    <g>
        <path d="M450.5,267.5C471.092,292.602 491.926,317.602 513,342.5C514.77,345.042 516.27,347.709 517.5,350.5C513.137,361.559 507.97,372.226 502,382.5C493.667,397.833 485.333,413.167 477,428.5C476.059,430.061 474.892,431.395 473.5,432.5C465.428,377.591 457.761,322.591 450.5,267.5Z" style="fill:rgb(254,254,254);"/>
    </g>
    <g>
        <path d="M312.5,290.5C311.833,289.167 311.833,289.167 312.5,290.5Z" style="fill:rgb(229,230,229);"/>
    </g>
    <g>
        <path d="M695.5,445.5C670.963,422.131 647.297,397.964 624.5,373C637.748,344.336 651.915,316.17 667,288.5C674.372,298.582 680.705,309.249 686,320.5C689.549,362.143 692.716,403.81 695.5,445.5Z" style="fill:rgb(254,254,254);"/>
    </g>
    <g>
        <path d="M312.5,290.5C354.168,290.333 395.835,290.5 437.5,291C417.365,312.803 396.865,334.303 376,355.5C354.268,334.27 333.101,312.603 312.5,290.5Z" style="fill:rgb(254,254,254);"/>
    </g>
    <g>
        <path d="M105.5,295.5C118.465,310.757 130.465,326.757 141.5,343.5C128.632,360.211 114.798,376.211 100,391.5C100.572,359.427 102.405,327.427 105.5,295.5Z" style="fill:rgb(254,254,254);"/>
    </g>
    <g>
        <path d="M511.5,538.5C525.983,457.586 541.816,376.919 559,296.5C572.185,322.87 585.351,349.203 598.5,375.5C570.681,430.602 541.681,484.935 511.5,538.5Z" style="fill:rgb(254,254,254);"/>
    </g>
    <g>
        <path d="M295.5,299.5C314.359,317.192 332.359,335.692 349.5,355C320.691,363.12 291.691,370.12 262.5,376C273.368,350.431 284.368,324.931 295.5,299.5Z" style="fill:rgb(254,254,254);"/>
    </g>
    <g>
        <path d="M208.5,302.5C210.011,304.476 210.844,306.809 211,309.5C214.44,335.238 217.773,360.905 221,386.5C204.687,372.02 188.853,357.02 173.5,341.5C185.559,328.778 197.226,315.778 208.5,302.5Z" style="fill:rgb(254,254,254);"/>
    </g>
    <g>
        <path d="M437.5,319.5C441.014,337.249 443.847,355.249 446,373.5C448.412,389.122 450.078,404.789 451,420.5C430.33,403.993 409.83,387.326 389.5,370.5C404.789,352.876 420.789,335.876 437.5,319.5Z" style="fill:rgb(254,254,254);"/>
    </g>
    <g>
        <path d="M157.5,358.5C178.648,376.752 198.982,395.919 218.5,416C208.809,438.735 199.309,461.569 190,484.5C169.785,453.236 149.952,421.736 130.5,390C138.948,379.05 147.948,368.55 157.5,358.5Z" style="fill:rgb(254,254,254);"/>
    </g>
    <g>
        <path d="M372.5,370.5C373.525,370.897 373.692,371.563 373,372.5C338.416,414.422 303.083,455.755 267,496.5C261.582,467.994 256.582,439.328 252,410.5C251.333,408.167 251.333,405.833 252,403.5C292.28,392.568 332.447,381.568 372.5,370.5Z" style="fill:rgb(254,254,254);"/>
    </g>
    <g>
        <path d="M698.5,483.5L698.5,491.5C671.271,497.212 643.938,502.546 616.5,507.5C616.612,467.814 616.445,428.147 616,388.5C643,414.833 670,441.167 697,467.5C697.173,473.016 697.673,478.349 698.5,483.5Z" style="fill:rgb(254,254,254);"/>
    </g>
    <g>
        <path d="M382.5,392.5C386.441,394.14 390.108,396.306 393.5,399C415.242,416.62 437.075,434.12 459,451.5C461.559,460.694 462.392,470.027 461.5,479.5C419.418,467.973 377.418,456.14 335.5,444C351.373,426.963 367.04,409.796 382.5,392.5Z" style="fill:rgb(254,254,254);"/>
    </g>
    <g>
        <path d="M515.5,399.5C508.011,446.748 499.511,494.081 490,541.5C485.439,516.7 481.606,491.7 478.5,466.5C490.587,443.989 502.921,421.655 515.5,399.5Z" style="fill:rgb(254,254,254);"/>
    </g>
    <g>
        <path d="M115.5,406.5C135.108,433.99 153.442,462.49 170.5,492C168.326,495.101 165.659,497.768 162.5,500C146.721,510.779 131.221,521.946 116,533.5C110.757,495.31 106.757,456.976 104,418.5C108.037,414.631 111.87,410.631 115.5,406.5Z" style="fill:rgb(254,254,254);"/>
    </g>
    <g>
        <path d="M595.5,427.5C597.459,455.324 597.792,483.324 596.5,511.5C576.845,521.659 557.512,532.326 538.5,543.5C538.167,543.167 537.833,542.833 537.5,542.5C557.115,504.269 576.449,465.936 595.5,427.5Z" style="fill:rgb(254,254,254);"/>
    </g>
    <g>
        <path d="M695.5,445.5C696.833,446.167 696.833,446.167 695.5,445.5Z" style="fill:rgb(239,240,239);"/>
    </g>
    <g>
        <path d="M326.5,463.5C364.274,473.528 401.941,484.028 439.5,495C412.91,518.93 385.743,542.096 358,564.5C334.093,545.458 310.26,526.292 286.5,507C299.671,492.33 313.004,477.83 326.5,463.5Z" style="fill:rgb(254,254,254);"/>
    </g>
    <g>
        <path d="M241.5,492.5L245.5,492.5C247.894,507.522 250.06,522.522 252,537.5C237.912,526.75 224.412,515.25 211.5,503C221.571,499.367 231.571,495.867 241.5,492.5Z" style="fill:rgb(254,254,254);"/>
    </g>
    <g>
        <path d="M345.5,666.5C353.353,638.103 361.52,609.77 370,581.5C400.333,555.833 430.667,530.167 461,504.5C460.445,511.841 459.445,519.174 458,526.5C452.51,555.285 446.51,583.952 440,612.5C409.015,631.409 377.515,649.409 345.5,666.5Z" style="fill:rgb(254,254,254);"/>
    </g>
    <g>
        <path d="M192.5,515.5C208.667,529.498 225.001,543.331 241.5,557C246.07,561.401 250.404,565.901 254.5,570.5C242.884,599.066 230.717,627.399 218,655.5C209.606,608.802 201.106,562.135 192.5,515.5Z" style="fill:rgb(254,254,254);"/>
    </g>
    <g>
        <path d="M684.5,515.5L690.5,515.5C690.667,553.168 690.5,590.835 690,628.5C689.831,634.859 689.331,641.193 688.5,647.5C664.833,630.167 641.167,612.833 617.5,595.5C616.174,573.601 616.174,551.768 617.5,530C640.004,525.335 662.337,520.501 684.5,515.5Z" style="fill:rgb(254,254,254);"/>
    </g>
    <g>
        <path d="M174.5,517.5C175.833,518.167 175.833,518.167 174.5,517.5Z" style="fill:rgb(249,250,249);"/>
    </g>
    <g>
        <path d="M174.5,518.5C158.559,554.385 142.059,590.051 125,625.5C121.557,602.962 119.557,580.295 119,557.5C136.826,543.502 155.326,530.502 174.5,518.5Z" style="fill:rgb(254,254,254);"/>
    </g>
    <g>
        <path d="M271.5,522.5C294.67,541.5 318.003,560.333 341.5,579C343.916,581.074 345.916,583.408 347.5,586C339.688,615.092 331.188,643.926 322,672.5C304.263,622.787 287.429,572.787 271.5,522.5Z" style="fill:rgb(254,254,254);"/>
    </g>
    <g>
        <path d="M594.5,537.5C596.28,541.727 597.114,546.394 597,551.5C597.832,561.849 597.666,572.183 596.5,582.5C583,574.584 569.666,566.418 556.5,558C569.069,550.884 581.736,544.05 594.5,537.5Z" style="fill:rgb(254,254,254);"/>
    </g>
    <g>
        <path d="M511.5,538.5C511.631,539.239 511.464,539.906 511,540.5C510.308,539.563 510.475,538.897 511.5,538.5Z" style="fill:rgb(252,252,252);"/>
    </g>
    <g>
        <path d="M178.5,558.5C180.417,561.804 181.584,565.471 182,569.5C187.047,598.399 192.214,627.232 197.5,656C192.683,657.964 187.683,659.298 182.5,660C163.929,663.012 145.429,666.178 127,669.5C143.571,632.351 160.737,595.351 178.5,558.5Z" style="fill:rgb(254,254,254);"/>
    </g>
    <g>
        <path d="M526.5,565.5C550.308,580.239 573.974,595.239 597.5,610.5C598.833,635.167 598.833,659.833 597.5,684.5C595.167,685.667 592.833,686.833 590.5,688C589.056,688.781 587.723,688.614 586.5,687.5C566.489,646.811 546.489,606.145 526.5,565.5Z" style="fill:rgb(254,254,254);"/>
    </g>
    <g>
        <path d="M617.5,623.5C641.637,639.746 665.304,656.746 688.5,674.5C689.666,698.826 689.833,723.16 689,747.5C665.333,728.167 641.667,708.833 618,689.5C617.5,667.503 617.333,645.503 617.5,623.5Z" style="fill:rgb(254,254,254);"/>
    </g>
    <g>
        <path d="M433.5,640.5C434.497,640.47 435.164,640.97 435.5,642C427.712,678.648 419.379,715.148 410.5,751.5C400.514,742.014 390.681,732.348 381,722.5C370.278,711.614 360.111,700.281 350.5,688.5C378.031,672.236 405.697,656.236 433.5,640.5Z" style="fill:rgb(254,254,254);"/>
    </g>
    <g>
        <path d="M345.5,666.5C344.833,667.167 344.833,667.167 345.5,666.5Z" style="fill:rgb(254,255,254);"/>
    </g>
    <g>
        <path d="M210.5,677.5C211.831,685.807 212.498,694.473 212.5,703.5C212.423,718.515 211.923,733.515 211,748.5C190.167,729 170,708.833 150.5,688C170.619,684.37 190.619,680.87 210.5,677.5Z" style="fill:rgb(254,254,254);"/>
    </g>
    <g>
        <path d="M388.5,761.5L252.5,761.5C252.211,757.894 252.544,754.394 253.5,751C277.975,732.692 302.309,714.192 326.5,695.5C347.527,717.192 368.193,739.192 388.5,761.5Z" style="fill:rgb(254,254,254);"/>
    </g>
    <g>
        <path d="M148.5,761.5L61.5,761.5C60.966,756.103 62.633,751.603 66.5,748C88.027,732.306 109.694,716.806 131.5,701.5C151.348,720.515 170.681,740.015 189.5,760C175.661,760.169 161.994,760.669 148.5,761.5Z" style="fill:rgb(254,254,254);"/>
    </g>
    <g>
        <path d="M629.5,761.5L537.5,761.5C537.173,756.786 537.507,752.12 538.5,747.5C561.339,734.58 584.339,721.913 607.5,709.5C629.264,725.762 650.598,742.595 671.5,760C657.327,760.169 643.327,760.669 629.5,761.5Z" style="fill:rgb(254,254,254);"/>
    </g>
</svg>
